<?xml version="1.0" encoding="UTF-8" standalone="no"?>
<svg
   width="368.37286"
   height="56.000294"
   viewBox="0 0 368.37286 56.000294"
   fill="none"
   version="1.1"
   id="svg36"
   sodipodi:docname="suap_ifrn_logo.svg"
   inkscape:version="1.4.1-rc (06eac75fbf, 2025-03-29)"
   xmlns:inkscape="http://www.inkscape.org/namespaces/inkscape"
   xmlns:sodipodi="http://sodipodi.sourceforge.net/DTD/sodipodi-0.dtd"
   xmlns="http://www.w3.org/2000/svg"
   xmlns:svg="http://www.w3.org/2000/svg">
  <defs
     id="defs36" />
  <sodipodi:namedview
     id="namedview36"
     pagecolor="#ffffff"
     bordercolor="#000000"
     borderopacity="0.25"
     inkscape:showpageshadow="2"
     inkscape:pageopacity="0.0"
     inkscape:pagecheckerboard="0"
     inkscape:deskcolor="#d1d1d1"
     inkscape:zoom="1.06"
     inkscape:cx="337.26415"
     inkscape:cy="50.471698"
     inkscape:window-width="1920"
     inkscape:window-height="1011"
     inkscape:window-x="0"
     inkscape:window-y="0"
     inkscape:window-maximized="1"
     inkscape:current-layer="svg36" />
  <path
     d="M 166.32735,14.984652 V 0.23208505 h 3.12834 V 14.984652 Z"
     fill="#00e599"
     id="path1"
     style="stroke-width:0.546531" />
  <path
     d="m 186.25661,14.984652 h -3.97602 L 175.86322,3.824358 h -0.0907 c 0.0268,0.464169 0.0503,0.9317047 0.0705,1.4025796 0.0202,0.470946 0.0404,0.9418373 0.0607,1.4127287 0.0202,0.464169 0.0404,0.9316718 0.0601,1.4025632 v 6.9424225 h -2.79496 V 0.23208505 h 3.9454 L 183.5218,11.281356 h 0.0711 c -0.0137,-0.457446 -0.0306,-0.911505 -0.0508,-1.362229 -0.0202,-0.4507242 -0.0404,-0.9014485 -0.0607,-1.3521729 -0.0131,-0.4507243 -0.0268,-0.901394 -0.0399,-1.3521183 V 0.23208505 h 2.81518 z"
     fill="#00e599"
     id="path2"
     style="stroke-width:0.546531" />
  <path
     d="m 198.68801,10.887799 c 0,0.874559 -0.21151,1.63473 -0.63562,2.280511 -0.42356,0.645782 -1.04278,1.143617 -1.85656,1.493397 -0.80723,0.349835 -1.78935,0.524725 -2.94635,0.524725 -0.51156,0 -1.01273,-0.03361 -1.50351,-0.10089 -0.48423,-0.06728 -0.95206,-0.164834 -1.40295,-0.292613 -0.44378,-0.134556 -0.86734,-0.29939 -1.27123,-0.494447 v -2.906125 c 0.69956,0.309446 1.4259,0.588614 2.17957,0.837504 0.75367,0.248945 1.50023,0.373391 2.24023,0.373391 0.51101,0 0.92145,-0.06728 1.23079,-0.201834 0.31644,-0.134556 0.54489,-0.319557 0.68644,-0.555003 0.14101,-0.235446 0.21206,-0.504503 0.21206,-0.807227 0,-0.370001 -0.12461,-0.68617 -0.37383,-0.948505 -0.24867,-0.262389 -0.59189,-0.507946 -1.02912,-0.7366692 -0.43067,-0.2286687 -0.91817,-0.4742252 -1.46306,-0.7366148 -0.34323,-0.1614454 -0.71651,-0.3565024 -1.11985,-0.5852257 -0.40388,-0.2354457 -0.787,-0.5213362 -1.15044,-0.8577262 -0.36345,-0.3363353 -0.66295,-0.7433372 -0.89796,-1.2209508 -0.22899,-0.484336 -0.34322,-1.062894 -0.34322,-1.735603 0,-0.8812489 0.20167,-1.6346859 0.60556,-2.2603057 0.40334,-0.6256199 0.97884,-1.1032445 1.7254,-1.43287386 0.75312,-0.33635502 1.64123,-0.50453253 2.66379,-0.50453253 0.76679,0 1.49695,0.090816 2.18995,0.27244748 0.69956,0.17490695 1.42918,0.43053601 2.18941,0.76688771 l -1.0089,2.431851 c -0.67934,-0.2758124 -1.28817,-0.4877135 -1.82651,-0.6357142 -0.53833,-0.154723 -1.0865,-0.2320845 -1.64506,-0.2320845 -0.38967,0 -0.72306,0.063911 -0.99851,0.1917232 -0.276,0.1210894 -0.48477,0.2959958 -0.62578,0.5247137 -0.14155,0.2219955 -0.21205,0.4809912 -0.21205,0.7769816 0,0.3498128 0.10111,0.6458033 0.30278,0.8879767 0.20877,0.235473 0.51811,0.4641964 0.92855,0.6861427 0.41701,0.222001 0.93512,0.4810022 1.55379,0.7770035 0.75367,0.356557 1.39584,0.7298925 1.92707,1.1200612 0.53833,0.3834463 0.95206,0.8375045 1.24117,1.3622292 0.28967,0.5180023 0.43395,1.1637835 0.43395,1.9373985 z"
     fill="#00e599"
     id="path3"
     style="stroke-width:0.546531" />
  <path
     d="m 207.05322,14.984652 h -3.1278 V 2.8354753 h -4.00608 V 0.23208505 h 11.13995 V 2.8354753 h -4.00607 z"
     fill="#00e599"
     id="path4"
     style="stroke-width:0.546531" />
  <path
     d="M 213.32958,14.984652 V 0.23208505 h 3.12835 V 14.984652 Z"
     fill="#00e599"
     id="path5"
     style="stroke-width:0.546531" />
  <path
     d="m 225.86209,14.984652 h -3.1278 V 2.8354753 h -4.00607 V 0.23208505 h 11.13994 V 2.8354753 h -4.00607 z"
     fill="#00e599"
     id="path6"
     style="stroke-width:0.546531" />
  <path
     d="M 244.14684,0.23208505 V 9.777849 c 0,1.015783 -0.22572,1.934065 -0.67606,2.754736 -0.44433,0.814004 -1.12039,1.459785 -2.02872,1.937399 -0.90123,0.477668 -2.03802,0.716448 -3.41036,0.716448 -1.95111,0 -3.43768,-0.497781 -4.46024,-1.493397 -1.02256,-0.995616 -1.53357,-2.314123 -1.53357,-3.955575 V 0.23208505 h 3.11796 V 9.263235 c 0,1.217617 0.24868,2.071955 0.74657,2.563013 0.49789,0.491058 1.23461,0.736615 2.21017,0.736615 0.6859,0 1.24117,-0.117723 1.66473,-0.353169 0.43067,-0.235445 0.74657,-0.598725 0.94878,-1.089783 0.20167,-0.491113 0.30223,-1.116727 0.30223,-1.876843 V 0.23208505 Z"
     fill="#00e599"
     id="path7"
     style="stroke-width:0.546531" />
  <path
     d="M 253.45044,14.984652 H 250.3221 V 2.8354753 h -4.00608 V 0.23208505 h 11.13995 V 2.8354753 h -4.00553 z"
     fill="#00e599"
     id="path8"
     style="stroke-width:0.546531" />
  <path
     d="m 273.11682,7.5881713 c 0,1.1368943 -0.141,2.1728447 -0.42356,3.1079047 -0.28255,0.928338 -0.71322,1.728897 -1.292,2.401622 -0.57167,0.672671 -1.29801,1.190673 -2.17956,1.553953 -0.88101,0.356502 -1.92379,0.534781 -3.1278,0.534781 -1.20401,0 -2.24679,-0.178279 -3.12835,-0.534781 -0.88101,-0.36328 -1.61117,-0.881282 -2.1894,-1.553953 -0.57167,-0.672725 -0.99906,-1.476618 -1.28162,-2.411678 -0.28255,-0.935061 -0.42356,-1.974399 -0.42356,-3.1180157 0,-1.527063 0.24867,-2.8556696 0.74656,-3.9858198 0.50445,-1.1368834 1.27779,-2.0181322 2.32057,-2.6437521 C 263.18089,0.31281264 264.50622,0 266.11412,0 c 1.60079,0 2.91629,0.31281264 3.94541,0.9384324 1.03567,0.6256199 1.803,1.5068687 2.30035,2.6437521 0.50499,1.136878 0.75694,2.4722014 0.75694,4.0059868 z m -10.76666,0 c 0,1.0292277 0.12789,1.9172317 0.38366,2.6639577 0.26234,0.739948 0.66896,1.311784 1.22095,1.715397 0.55145,0.396891 1.26468,0.595337 2.13913,0.595337 0.88811,0 1.60789,-0.198446 2.15934,-0.595337 0.55145,-0.403613 0.95206,-0.975449 1.20073,-1.715397 0.25578,-0.746726 0.38367,-1.63473 0.38367,-2.6639577 0,-1.54723 -0.28967,-2.7648361 -0.8679,-3.6528128 -0.57877,-0.8879821 -1.53028,-1.3319677 -2.85562,-1.3319677 -0.88156,0 -1.60134,0.2018121 -2.15935,0.6054364 -0.55199,0.3969019 -0.95861,0.9687048 -1.22095,1.7154141 -0.25577,0.739976 -0.38366,1.62798 -0.38366,2.66393 z"
     fill="#00e599"
     id="path9"
     style="stroke-width:0.546531" />
  <path
     d="M 284.62021,14.984652 H 281.5427 V 0.23208505 h 8.45593 V 2.7951139 h -5.37842 v 3.8041637 h 5.00514 v 2.5529569 h -5.00514 z"
     fill="#00e599"
     id="path10"
     style="stroke-width:0.546531" />
  <path
     d="m 301.38069,14.984652 h -8.49638 V 0.23208505 h 8.49638 V 2.7951139 h -5.36803 v 3.239105 h 4.99475 V 8.597232 h -4.99475 v 3.804186 h 5.36803 z"
     fill="#00e599"
     id="path11"
     style="stroke-width:0.546531" />
  <path
     d="m 316.7087,7.46706 c 0,1.661619 -0.31972,3.050792 -0.95861,4.167465 -0.63234,1.10995 -1.55051,1.947509 -2.75507,2.512568 -1.204,0.558336 -2.65395,0.837559 -4.34875,0.837559 h -4.17768 V 0.23208505 h 4.63185 c 1.54723,0 2.88897,0.27581192 4.02575,0.82743135 1.13679,0.5448972 2.01834,1.3555124 2.64412,2.431851 0.62523,1.0696109 0.93839,2.3948509 0.93839,3.9756926 z m -3.24912,0.080777 c 0,-1.089838 -0.16178,-1.9845097 -0.48478,-2.6841408 -0.31589,-0.7063479 -0.787,-1.227695 -1.41223,-1.5640522 -0.61922,-0.3363572 -1.38601,-0.5045304 -2.3009,-0.5045304 h -1.66474 v 9.6063044 h 1.34174 c 1.52701,0 2.66051,-0.407002 3.40052,-1.220951 0.74656,-0.814004 1.12039,-2.024899 1.12039,-3.63263 z"
     fill="#00e599"
     id="path12"
     style="stroke-width:0.546531" />
  <path
     d="M 328.26238,14.984652 H 319.766 V 0.23208505 h 8.49638 V 2.7951139 h -5.36803 v 3.239105 h 4.99474 V 8.597232 h -4.99474 v 3.804186 h 5.36803 z"
     fill="#00e599"
     id="path13"
     style="stroke-width:0.546531" />
  <path
     d="m 335.64875,0.23208505 c 1.33845,0 2.4419,0.16145025 3.30979,0.48435185 0.87445,0.3229016 1.52373,0.8106152 1.94729,1.4631462 0.42411,0.6525255 0.63562,1.4765963 0.63562,2.4722123 0,0.672698 -0.12789,1.2613122 -0.38312,1.7658699 -0.25578,0.504503 -0.5919,0.9316718 -1.00945,1.2815065 -0.417,0.3498347 -0.86734,0.6357252 -1.35211,0.8577262 l 4.33945,6.427754 h -3.47156 l -3.5213,-5.6608614 h -1.66528 v 5.6608614 h -3.1278 V 0.23208505 Z m -0.2219,2.56302885 h -0.94877 v 3.9858307 h 1.00889 c 1.03623,0 1.77623,-0.1715562 2.22001,-0.5146685 0.45089,-0.34978 0.67606,-0.86106 0.67606,-1.533758 0,-0.6996202 -0.24211,-1.1974227 -0.72634,-1.4934186 -0.47767,-0.2959904 -1.22095,-0.4439856 -2.22985,-0.4439856 z"
     fill="#00e599"
     id="path14"
     style="stroke-width:0.546531" />
  <path
     d="m 354.02367,14.984652 -1.06956,-3.511573 h -5.37841 l -1.06956,3.511573 h -3.36992 l 5.20626,-14.81311114 h 3.82463 l 5.22702,14.81311114 z m -1.81612,-6.1351412 -1.06956,-3.43085 c -0.0672,-0.2287015 -0.15795,-0.5213307 -0.27272,-0.8778659 -0.10767,-0.3632629 -0.21861,-0.7298925 -0.33284,-1.0998832 -0.10767,-0.3767131 -0.19511,-0.7029813 -0.26233,-0.9787938 -0.0672,0.2758125 -0.16123,0.6188975 -0.28256,1.0292495 -0.11423,0.4036243 -0.22517,0.7870706 -0.33284,1.1503336 -0.10766,0.3632629 -0.18527,0.6222368 -0.23227,0.7769598 l -1.05973,3.43085 z"
     fill="#00e599"
     id="path15"
     style="stroke-width:0.546531" />
  <path
     d="M 359.26108,14.984652 V 0.23208505 h 3.1278 V 12.401418 h 5.98397 v 2.583234 z"
     fill="#00e599"
     id="path16"
     style="stroke-width:0.546531" />
  <path
     d="m 169.64097,25.816957 c 1.04278,0 1.90302,0.130347 2.58072,0.390988 0.68316,0.254902 1.19307,0.645891 1.52919,1.173075 0.33612,0.527129 0.5039,1.199089 0.5039,2.01588 0,0.671961 -0.12187,1.233849 -0.36508,1.685667 -0.24321,0.446079 -0.56183,0.808101 -0.95588,1.086176 -0.39351,0.27802 -0.81379,0.49237 -1.25976,0.642994 l 3.48414,5.708792 h -1.71993 l -3.11086,-5.300424 h -2.64139 v 5.300424 h -1.47727 V 25.816957 Z m -0.0869,1.277298 h -1.86805 v 4.874621 h 2.01561 c 1.03677,0 1.79864,-0.211452 2.28505,-0.634304 0.49242,-0.422851 0.73891,-1.045569 0.73891,-1.868153 0,-0.863137 -0.2607,-1.474268 -0.78209,-1.833448 -0.51538,-0.359126 -1.31222,-0.538716 -2.38943,-0.538716 z"
     fill="#00e599"
     id="path17"
     style="stroke-width:0.546531" />
  <path
     d="m 178.41716,28.997167 v 9.523362 h -1.44284 v -9.523362 z m -0.70393,-3.562564 c 0.2372,0 0.43996,0.07821 0.60829,0.234626 0.1738,0.150624 0.2607,0.388092 0.2607,0.712513 0,0.318628 -0.0869,0.556096 -0.2607,0.712513 -0.16833,0.156417 -0.37109,0.234626 -0.60829,0.234626 -0.24922,0 -0.45799,-0.07821 -0.62578,-0.234626 -0.16232,-0.156417 -0.2432,-0.393885 -0.2432,-0.712513 0,-0.324421 0.0809,-0.561889 0.2432,-0.712513 0.16779,-0.156417 0.37656,-0.234626 0.62578,-0.234626 z"
     fill="#00e599"
     id="path18"
     style="stroke-width:0.546531" />
  <path
     d="m 189.68664,33.741496 c 0,0.782032 -0.10111,1.480061 -0.30387,2.094089 -0.20276,0.614028 -0.49516,1.132468 -0.87773,1.555374 -0.38257,0.422851 -0.84548,0.747217 -1.39038,0.973153 -0.53888,0.220143 -1.1499,0.330214 -1.83306,0.330214 -0.63726,0 -1.22259,-0.110071 -1.75546,-0.330214 -0.5274,-0.225936 -0.98485,-0.550302 -1.37289,-0.973153 -0.38257,-0.422906 -0.68043,-0.941346 -0.89522,-1.555374 -0.20822,-0.614028 -0.31261,-1.312057 -0.31261,-2.094089 0,-1.042727 0.17653,-1.929037 0.53013,-2.658929 0.35306,-0.735686 0.85751,-1.294678 1.51171,-1.676977 0.66076,-0.388146 1.44557,-0.582165 2.355,-0.582165 0.86899,0 1.62757,0.194019 2.27631,0.582165 0.65474,0.388092 1.16137,0.949981 1.52099,1.685667 0.36454,0.729892 0.54708,1.613305 0.54708,2.650239 z m -7.24646,0 c 0,0.764652 0.10111,1.427922 0.30387,1.989811 0.20277,0.561889 0.51538,0.996327 0.9384,1.303368 0.42301,0.307041 0.96736,0.460507 1.63358,0.460507 0.66021,0 1.20182,-0.153466 1.62484,-0.460507 0.42902,-0.307041 0.74437,-0.741479 0.94714,-1.303368 0.20276,-0.561889 0.30441,-1.225159 0.30441,-1.989811 0,-0.758859 -0.10165,-1.413439 -0.30441,-1.963796 -0.20277,-0.556096 -0.51538,-0.98474 -0.9384,-1.285988 -0.42301,-0.301194 -0.97009,-0.451818 -1.64233,-0.451818 -0.99031,0 -1.7172,0.327263 -2.18066,0.981844 -0.45799,0.654635 -0.68644,1.561166 -0.68644,2.719758 z"
     fill="#00e599"
     id="path19"
     style="stroke-width:0.546531" />
  <path
     d="m 202.45142,31.864598 h 4.44002 v 6.160665 c -0.66622,0.225881 -1.35266,0.393885 -2.05933,0.503956 -0.7012,0.110072 -1.48601,0.165107 -2.355,0.165107 -1.32042,0 -2.43589,-0.263592 -3.34532,-0.790721 -0.90341,-0.527184 -1.58986,-1.277298 -2.05933,-2.250507 -0.46892,-0.979001 -0.70393,-2.140435 -0.70393,-3.484355 0,-1.314954 0.25796,-2.461959 0.77334,-3.440906 0.52139,-0.979002 1.27178,-1.73786 2.25062,-2.276576 0.98485,-0.544509 2.16645,-0.816791 3.54535,-0.816791 0.70666,0 1.37562,0.06662 2.00686,0.199866 0.63726,0.127451 1.2286,0.309883 1.77295,0.547406 l -0.56512,1.285988 c -0.46892,-0.202763 -0.98758,-0.376505 -1.55488,-0.521336 -0.56238,-0.144831 -1.14443,-0.217246 -1.74671,-0.217246 -1.03677,0 -1.92598,0.214349 -2.66762,0.642994 -0.73563,0.428699 -1.30075,1.034037 -1.69425,1.816068 -0.38803,0.782032 -0.5826,1.70884 -0.5826,2.780533 0,1.060052 0.17106,1.984018 0.51319,2.771843 0.34158,0.782031 0.87445,1.390266 1.59861,1.824704 0.72415,0.434492 1.65653,0.651683 2.79769,0.651683 0.57386,0 1.06628,-0.03186 1.47727,-0.09553 0.41154,-0.06952 0.78482,-0.150624 1.12094,-0.243316 v -3.892778 h -2.96275 z"
     fill="#00e599"
     id="path20"
     style="stroke-width:0.546531" />
  <path
     d="m 214.07724,28.823425 c 0.19128,0 0.39131,0.01159 0.59954,0.03476 0.20878,0.01733 0.39405,0.0434 0.55637,0.07815 l -0.18254,1.338182 c -0.15631,-0.04055 -0.33011,-0.07241 -0.52139,-0.09559 -0.19129,-0.02317 -0.3711,-0.03476 -0.53888,-0.03476 -0.38203,0 -0.74438,0.07821 -1.08596,0.234571 -0.33612,0.150624 -0.63179,0.370767 -0.88647,0.660373 -0.25469,0.283869 -0.45472,0.628566 -0.59955,1.034038 -0.14483,0.399678 -0.21697,0.845757 -0.21697,1.338127 v 5.109247 h -1.45104 v -9.523362 h 1.19909 l 0.15631,1.75524 h 0.0607 c 0.19675,-0.353387 0.43449,-0.674857 0.71268,-0.964518 0.27764,-0.2954 0.59954,-0.530026 0.96408,-0.703823 0.37109,-0.173797 0.78209,-0.260641 1.23407,-0.260641 z"
     fill="#00e599"
     id="path21"
     style="stroke-width:0.546531" />
  <path
     d="m 220.59408,28.840805 c 1.13569,0 1.97844,0.254847 2.5288,0.764597 0.55035,0.509804 0.82526,1.323699 0.82526,2.441683 v 6.473444 h -1.05153 l -0.27764,-1.407646 h -0.07 c -0.26616,0.34754 -0.54435,0.640098 -0.83401,0.87762 -0.28966,0.231675 -0.62578,0.408368 -1.0078,0.530026 -0.37656,0.115865 -0.84002,0.173797 -1.39038,0.173797 -0.57932,0 -1.0947,-0.101381 -1.54668,-0.304144 -0.44597,-0.202763 -0.79958,-0.50975 -1.06027,-0.921069 -0.25469,-0.411265 -0.38203,-0.932601 -0.38203,-1.564009 0,-0.950035 0.37656,-1.679928 1.12968,-2.189678 0.75312,-0.509804 1.89975,-0.787824 3.44096,-0.83417 l 1.64233,-0.06952 v -0.582165 c 0,-0.822584 -0.17708,-1.398956 -0.53014,-1.72917 -0.3536,-0.33016 -0.85149,-0.495267 -1.49476,-0.495267 -0.49789,0 -0.97337,0.07241 -1.42481,0.217246 -0.45198,0.144776 -0.88046,0.315677 -1.28598,0.512646 l -0.44324,-1.094866 c 0.42848,-0.220088 0.92091,-0.408368 1.47727,-0.564785 0.55583,-0.156417 1.14116,-0.234571 1.75492,-0.234571 z m 1.92925,4.987589 -1.45104,0.06077 c -1.18761,0.04635 -2.0249,0.240419 -2.51131,0.582219 -0.48641,0.341746 -0.73017,0.825427 -0.73017,1.451096 0,0.544509 0.16506,0.947084 0.49571,1.207779 0.3301,0.260696 0.76733,0.390989 1.31167,0.390989 0.84603,0 1.53794,-0.234572 2.07682,-0.703823 0.53888,-0.469197 0.80832,-1.17302 0.80832,-2.111469 z"
     fill="#00e599"
     id="path22"
     style="stroke-width:0.546531" />
  <path
     d="m 231.4296,28.823425 c 1.12968,0 1.98391,0.278021 2.56324,0.834116 0.57932,0.550357 0.86898,1.436612 0.86898,2.658929 v 6.204059 h -1.42481 v -6.10847 c 0,-0.793618 -0.18254,-1.387425 -0.54762,-1.78131 -0.35907,-0.393885 -0.91216,-0.590855 -1.65982,-0.590855 -1.05425,0 -1.79535,0.298297 -2.22438,0.895 -0.42848,0.596648 -0.64272,1.462682 -0.64272,2.598046 v 4.987589 h -1.44284 v -9.523362 h 1.16466 l 0.21697,1.372887 h 0.0781 c 0.20277,-0.335953 0.46073,-0.616925 0.77335,-0.842806 0.31316,-0.231729 0.66348,-0.405526 1.05152,-0.521391 0.38804,-0.121658 0.79684,-0.182432 1.22532,-0.182432 z"
     fill="#00e599"
     id="path23"
     style="stroke-width:0.546531" />
  <path
     d="m 241.22235,38.694326 c -1.2051,0 -2.16098,-0.411319 -2.86765,-1.233903 -0.70065,-0.82253 -1.05098,-2.044847 -1.05098,-3.666788 0,-1.639375 0.35907,-2.876121 1.07722,-3.710291 0.71814,-0.839964 1.67402,-1.259919 2.86765,-1.259919 0.5039,0 0.94386,0.06657 1.32042,0.199812 0.37656,0.133244 0.70119,0.312834 0.97337,0.53877 0.27217,0.220089 0.50117,0.472094 0.68644,0.755908 h 0.10439 c -0.0235,-0.179536 -0.0465,-0.425748 -0.07,-0.738583 -0.023,-0.312779 -0.0344,-0.567682 -0.0344,-0.764597 v -3.814569 h 1.4423 v 13.520363 h -1.16412 l -0.21751,-1.355506 h -0.0607 c -0.17981,0.283813 -0.40826,0.541612 -0.68644,0.773341 -0.27218,0.231675 -0.59955,0.417058 -0.98212,0.556096 -0.37656,0.133244 -0.82253,0.199866 -1.33791,0.199866 z m 0.22572,-1.199144 c 1.01983,0 1.7407,-0.289607 2.16372,-0.868875 0.42301,-0.579324 0.63452,-1.439509 0.63452,-2.580721 v -0.260641 c 0,-1.21073 -0.20276,-2.140435 -0.60829,-2.789222 -0.40006,-0.648842 -1.12968,-0.973208 -2.18995,-0.973208 -0.88593,0 -1.54942,0.341746 -1.98992,1.025292 -0.43996,0.677754 -0.66021,1.604616 -0.66021,2.780587 0,1.170124 0.21752,2.073813 0.65201,2.711014 0.43996,0.637201 1.10618,0.955774 1.99812,0.955774 z"
     fill="#00e599"
     id="path24"
     style="stroke-width:0.546531" />
  <path
     d="m 252.39673,28.823425 c 0.81105,0 1.50569,0.179536 2.08502,0.538716 0.57932,0.359126 1.02256,0.863137 1.32971,1.511924 0.30715,0.642994 0.46072,1.39606 0.46072,2.259196 v 0.894945 h -6.57805 c 0.0175,1.118039 0.29568,1.969535 0.83401,2.554651 0.53888,0.585062 1.29801,0.877566 2.27685,0.877566 0.60228,0 1.13514,-0.05504 1.5986,-0.165053 0.46346,-0.110071 0.94441,-0.272282 1.44285,-0.486631 v 1.268608 c -0.48095,0.21435 -0.95917,0.370767 -1.4341,0.469252 -0.46893,0.09849 -1.02529,0.147727 -1.66802,0.147727 -0.91544,0 -1.71501,-0.185383 -2.39817,-0.55615 -0.67825,-0.376505 -1.20511,-0.926808 -1.58167,-1.650907 -0.37656,-0.724099 -0.56456,-1.610409 -0.56456,-2.658875 0,-1.025347 0.17051,-1.911657 0.51264,-2.658929 0.3476,-0.753065 0.83401,-1.332334 1.45979,-1.737805 0.63124,-0.405526 1.37288,-0.608235 2.22438,-0.608235 z m -0.0175,1.18171 c -0.77061,0 -1.38436,0.252006 -1.84236,0.755962 -0.45744,0.503957 -0.72961,1.207779 -0.81651,2.111469 h 5.03956 c -0.005,-0.567682 -0.0956,-1.0659 -0.26944,-1.494544 -0.16778,-0.434438 -0.42575,-0.770446 -0.77334,-1.007968 -0.34759,-0.243261 -0.79356,-0.364919 -1.33791,-0.364919 z"
     fill="#00e599"
     id="path25"
     style="stroke-width:0.546531" />
  <path
     d="m 266.73389,38.694326 c -1.20511,0 -2.16099,-0.411319 -2.86765,-1.233903 -0.70066,-0.82253 -1.05153,-2.044847 -1.05153,-3.666788 0,-1.639375 0.35907,-2.876121 1.07776,-3.710291 0.71814,-0.839964 1.67402,-1.259919 2.8671,-1.259919 0.5039,0 0.94441,0.06657 1.32097,0.199812 0.37656,0.133244 0.70065,0.312834 0.97337,0.53877 0.27217,0.220089 0.50062,0.472094 0.68644,0.755908 h 0.10384 c -0.0229,-0.179536 -0.0459,-0.425748 -0.0694,-0.738583 -0.023,-0.312779 -0.0344,-0.567682 -0.0344,-0.764597 v -3.814569 h 1.4423 v 13.520363 h -1.16466 l -0.21697,-1.355506 h -0.0607 c -0.17981,0.283813 -0.4088,0.541612 -0.68644,0.773341 -0.27272,0.231675 -0.59954,0.417058 -0.98212,0.556096 -0.37656,0.133244 -0.82253,0.199866 -1.3379,0.199866 z m 0.22571,-1.199144 c 1.01983,0 1.7407,-0.289607 2.16372,-0.868875 0.42302,-0.579324 0.63398,-1.439509 0.63398,-2.580721 v -0.260641 c 0,-1.21073 -0.20277,-2.140435 -0.60775,-2.789222 -0.40006,-0.648842 -1.12968,-0.973208 -2.18995,-0.973208 -0.88647,0 -1.54941,0.341746 -1.98992,1.025292 -0.43996,0.677754 -0.66021,1.604616 -0.66021,2.780587 0,1.170124 0.21698,2.073813 0.65147,2.711014 0.4405,0.637201 1.10672,0.955774 1.99866,0.955774 z"
     fill="#00e599"
     id="path26"
     style="stroke-width:0.546531" />
  <path
     d="m 282.45267,33.741496 c 0,0.782032 -0.10165,1.480061 -0.30442,2.094089 -0.20276,0.614028 -0.49515,1.132468 -0.87773,1.555374 -0.38202,0.422851 -0.84548,0.747217 -1.38983,0.973153 -0.53888,0.220143 -1.1499,0.330214 -1.83361,0.330214 -0.63725,0 -1.22259,-0.110071 -1.75546,-0.330214 -0.52685,-0.225936 -0.98485,-0.550302 -1.37288,-0.973153 -0.38203,-0.422906 -0.68043,-0.941346 -0.89467,-1.555374 -0.20878,-0.614028 -0.31317,-1.312057 -0.31317,-2.094089 0,-1.042727 0.17708,-1.929037 0.53014,-2.658929 0.3536,-0.735686 0.85751,-1.294678 1.51225,-1.676977 0.66021,-0.388146 1.44503,-0.582165 2.35446,-0.582165 0.86898,0 1.62811,0.194019 2.27685,0.582165 0.65419,0.388092 1.16138,0.949981 1.52045,1.685667 0.36508,0.729892 0.54762,1.613305 0.54762,2.650239 z m -7.247,0 c 0,0.764652 0.1011,1.427922 0.30387,1.989811 0.20276,0.561889 0.51592,0.996327 0.93894,1.303368 0.42247,0.307041 0.96736,0.460507 1.63303,0.460507 0.66076,0 1.20237,-0.153466 1.62539,-0.460507 0.42848,-0.307041 0.74437,-0.741479 0.94714,-1.303368 0.20221,-0.561889 0.30387,-1.225159 0.30387,-1.989811 0,-0.758859 -0.10166,-1.413439 -0.30387,-1.963796 -0.20277,-0.556096 -0.51593,-0.98474 -0.93894,-1.285988 -0.42247,-0.301194 -0.9701,-0.451818 -1.64178,-0.451818 -0.99087,0 -1.71775,0.327263 -2.18121,0.981844 -0.45745,0.654635 -0.68644,1.561166 -0.68644,2.719758 z"
     fill="#00e599"
     id="path27"
     style="stroke-width:0.546531" />
  <path
     d="m 299.71759,38.520529 h -1.70299 l -6.9251,-10.670312 h -0.0694 c 0.0175,0.283868 0.0377,0.608234 0.0607,0.973208 0.0229,0.359126 0.0404,0.744376 0.0519,1.15564 0.0175,0.405472 0.0262,0.819688 0.0262,1.242539 v 7.298925 h -1.37288 V 25.816957 h 1.69424 l 6.89942,10.635553 h 0.0607 c -0.0115,-0.202763 -0.0257,-0.489474 -0.0432,-0.860241 -0.0175,-0.376505 -0.035,-0.779135 -0.0525,-1.207779 -0.0115,-0.434492 -0.0169,-0.837067 -0.0169,-1.207834 v -7.359699 h 1.38983 z"
     fill="#00e599"
     id="path28"
     style="stroke-width:0.546531" />
  <path
     d="m 311.1789,33.741496 c 0,0.782032 -0.10165,1.480061 -0.30442,2.094089 -0.20276,0.614028 -0.49515,1.132468 -0.87718,1.555374 -0.38257,0.422851 -0.84603,0.747217 -1.39038,0.973153 -0.53888,0.220143 -1.1499,0.330214 -1.83361,0.330214 -0.63725,0 -1.22204,-0.110071 -1.75491,-0.330214 -0.5274,-0.225936 -0.98485,-0.550302 -1.37289,-0.973153 -0.38257,-0.422906 -0.68097,-0.941346 -0.89521,-1.555374 -0.20823,-0.614028 -0.31262,-1.312057 -0.31262,-2.094089 0,-1.042727 0.17653,-1.929037 0.53014,-2.658929 0.35305,-0.735686 0.85696,-1.294678 1.5117,-1.676977 0.66021,-0.388146 1.44503,-0.582165 2.355,-0.582165 0.86844,0 1.62757,0.194019 2.27631,0.582165 0.65474,0.388092 1.16138,0.949981 1.52045,1.685667 0.36508,0.729892 0.54762,1.613305 0.54762,2.650239 z m -7.247,0 c 0,0.764652 0.10165,1.427922 0.30441,1.989811 0.20277,0.561889 0.51538,0.996327 0.9384,1.303368 0.42301,0.307041 0.96736,0.460507 1.63358,0.460507 0.66021,0 1.20182,-0.153466 1.62484,-0.460507 0.42848,-0.307041 0.74437,-0.741479 0.94714,-1.303368 0.20276,-0.561889 0.30387,-1.225159 0.30387,-1.989811 0,-0.758859 -0.10111,-1.413439 -0.30387,-1.963796 -0.20277,-0.556096 -0.51538,-0.98474 -0.9384,-1.285988 -0.42301,-0.301194 -0.97064,-0.451818 -1.64232,-0.451818 -0.99087,0 -1.71775,0.327263 -2.18121,0.981844 -0.45745,0.654635 -0.68644,1.561166 -0.68644,2.719758 z"
     fill="#00e599"
     id="path29"
     style="stroke-width:0.546531" />
  <path
     d="m 317.99961,28.823425 c 0.19129,0 0.39132,0.01159 0.59955,0.03476 0.20877,0.01733 0.39404,0.0434 0.55636,0.07815 l -0.18254,1.338182 c -0.1563,-0.04055 -0.3301,-0.07241 -0.52139,-0.09559 -0.19128,-0.02317 -0.37055,-0.03476 -0.53888,-0.03476 -0.38202,0 -0.74437,0.07821 -1.08596,0.234571 -0.33611,0.150624 -0.63124,0.370767 -0.88647,0.660373 -0.25468,0.283869 -0.45471,0.628566 -0.59954,1.034038 -0.14483,0.399678 -0.21698,0.845757 -0.21698,1.338127 v 5.109247 h -1.45104 v -9.523362 h 1.19909 l 0.15631,1.75524 h 0.0607 c 0.19729,-0.353387 0.43449,-0.674857 0.71267,-0.964518 0.27819,-0.2954 0.59955,-0.530026 0.96463,-0.703823 0.37055,-0.173797 0.78209,-0.260641 1.23352,-0.260641 z"
     fill="#00e599"
     id="path30"
     style="stroke-width:0.546531" />
  <path
     d="m 324.03004,37.512562 c 0.23774,0 0.48094,-0.02028 0.73016,-0.06083 0.24867,-0.04055 0.45144,-0.08974 0.60829,-0.147673 v 1.120881 c -0.16833,0.07531 -0.40279,0.139038 -0.70393,0.191177 -0.29567,0.05214 -0.58534,0.07821 -0.86898,0.07821 -0.50391,0 -0.9619,-0.0869 -1.37289,-0.260695 -0.41154,-0.17959 -0.74164,-0.480784 -0.99086,-0.90369 -0.24321,-0.422851 -0.36454,-1.007913 -0.36454,-1.755185 v -5.647963 h -1.35594 V 29.42297 l 1.36469,-0.564786 0.57331,-2.068074 h 0.86898 v 2.207057 h 2.78895 v 1.129626 h -2.78895 v 5.604514 c 0,0.596648 0.13609,1.042672 0.40826,1.338127 0.27818,0.295455 0.646,0.443128 1.10345,0.443128 z"
     fill="#00e599"
     id="path31"
     style="stroke-width:0.546531" />
  <path
     d="m 330.96388,28.823425 c 0.81105,0 1.50624,0.179536 2.08556,0.538716 0.57933,0.359126 1.02256,0.863137 1.32971,1.511924 0.30661,0.642994 0.46018,1.39606 0.46018,2.259196 v 0.894945 h -6.5775 c 0.0175,1.118039 0.29513,1.969535 0.83401,2.554651 0.53888,0.585062 1.29746,0.877566 2.27684,0.877566 0.60228,0 1.13515,-0.05504 1.59861,-0.165053 0.46346,-0.110071 0.9444,-0.272282 1.44229,-0.486631 v 1.268608 c -0.48094,0.21435 -0.95861,0.370767 -1.43355,0.469252 -0.46947,0.09849 -1.02529,0.147727 -1.66856,0.147727 -0.91489,0 -1.71447,-0.185383 -2.39818,-0.55615 -0.67769,-0.376505 -1.20455,-0.926808 -1.58111,-1.650907 -0.37656,-0.724099 -0.56511,-1.610409 -0.56511,-2.658875 0,-1.025347 0.17106,-1.911657 0.51264,-2.658929 0.3476,-0.753065 0.83456,-1.332334 1.45979,-1.737805 0.63179,-0.405526 1.37288,-0.608235 2.22438,-0.608235 z m -0.0169,1.18171 c -0.77061,0 -1.38491,0.252006 -1.84236,0.755962 -0.45745,0.503957 -0.72962,1.207779 -0.81652,2.111469 h 5.03957 c -0.006,-0.567682 -0.0957,-1.0659 -0.26944,-1.494544 -0.16779,-0.434438 -0.42575,-0.770446 -0.77334,-1.007968 -0.3476,-0.243261 -0.79357,-0.364919 -1.33791,-0.364919 z"
     fill="#00e599"
     id="path32"
     style="stroke-width:0.546531" />
  <path
     d="M 106.02363,7.1883837 H 105.8706 L 105.48803,0.841609 h -6.040807 c 0.228998,3.5170544 0.305508,7.3406964 0.305508,12.081964 v 43.076721 h 6.729439 V 32.881912 h 0.15303 c 2.21728,3.670722 6.42338,5.812524 11.39354,5.812524 8.6412,0 16.82387,-6.576466 16.82387,-19.882972 0,-11.2404538 -6.72889,-18.81144323 -15.75212,-18.81144323 -5.96539,0 -10.40049,2.60010723 -13.07686,7.18836293 z m 0.76515,18.3525203 c -0.23009,-0.840948 -0.30661,-1.835526 -0.30661,-2.752441 v -6.424147 c 0,-0.840292 0.22955,-1.835198 0.38257,-2.675763 1.29966,-5.1232385 5.65879,-8.3356399 10.24692,-8.3356399 7.11201,0 10.93554,6.3471409 10.93554,13.7648269 0,8.488287 -4.12959,14.300483 -11.2416,14.300483 -4.74116,0 -8.8702,-3.212074 -10.01682,-7.877319 z"
     fill="#00e599"
     id="path33"
     style="stroke-width:0.546531" />
  <path
     d="m 66.987638,3.212079 1.529195,4.511632 c 2.599303,-1.7591748 6.193839,-2.7531075 9.711861,-2.7531075 7.570004,-0.076334 8.411662,5.5058765 8.411662,8.5645935 v 0.765307 c -14.300537,-0.07668 -22.253113,4.817236 -22.253113,13.763844 0,5.353875 3.823532,10.630088 11.317569,10.630088 5.276213,0 9.329835,-2.600779 11.31757,-5.506194 h 0.229543 l 0.611568,4.66459 H 93.90485 C 93.522278,35.32906 93.369249,32.194321 93.369249,28.982575 V 15.141069 c 0,-7.417358 -2.753424,-15.1410526 -14.146962,-15.1410526 -4.664097,0 -9.17626,1.2998973 -12.234649,3.2120626 z m 4.128498,24.088655 c 0,-7.189072 8.335695,-8.48927 15.676703,-8.336296 v 6.424093 c 0,0.688301 -0.07652,1.452571 -0.306058,2.140544 -1.070108,3.135723 -4.205558,6.194112 -9.099746,6.194112 -3.3639,0 -6.270899,-1.988171 -6.270899,-6.422453 z"
     fill="#00e599"
     id="path34"
     style="stroke-width:0.546531" />
  <path
     d="M 52.600804,0.8416035 V 23.47671 c 0,1.299924 -0.229652,2.523444 -0.611951,3.440742 -1.222918,3.059045 -4.358642,6.194167 -8.870585,6.194167 -6.041193,0 -8.258361,-4.817619 -8.258361,-11.853334 V 0.8416035 H 28.130796 V 22.482132 c 0,12.923606 6.958436,16.212304 12.769976,16.212304 6.576465,0 10.553081,-3.900977 12.235305,-6.882742 h 0.152974 l 0.381971,6.041138 H 59.6357 C 59.406703,34.947089 59.329642,31.582697 59.329642,27.682377 V 0.8416035 Z"
     fill="#00e599"
     id="path35"
     style="stroke-width:0.546531" />
  <path
     d="m 0.9942502,10.858778 c 0,4.358642 3.1350728,8.02931 9.8645178,10.47613 4.894242,1.835198 6.805735,3.518678 6.805735,6.72944 0,3.135723 -2.293792,5.505865 -7.11141,5.505865 -3.3650476,0 -6.8824081,-1.375892 -8.9469081,-2.599139 L 0,36.017361 c 2.6001121,1.529523 6.3468244,2.600068 10.400119,2.600068 8.64126,0 13.764499,-4.587583 13.764499,-11.164704 0,-5.505866 -3.364665,-8.716955 -9.711478,-11.088409 -4.817946,-1.911165 -6.9587639,-3.287714 -6.9587639,-6.346485 0,-2.7534248 2.1408179,-5.0472275 6.1174889,-5.0472275 3.441015,0 6.117816,1.2998809 7.570387,2.1418123 L 22.788398,2.2941634 C 20.799898,0.994594 17.511857,1.64e-5 13.764511,1.64e-5 5.8885033,1.64e-5 0.9942502,4.8942695 0.9942502,10.858778 Z"
     fill="#00e599"
     id="path36"
     style="stroke-width:0.546531" />
</svg>
